<svg width="400" height="300" viewBox="0 0 400 300" xmlns="http://www.w3.org/2000/svg">
  <!-- Background -->
  <rect x="0" y="0" width="400" height="300" fill="#f8f8f8" rx="10" ry="10" />
  
  <!-- Ballot box -->
  <rect x="130" y="120" width="140" height="120" fill="#ffffff" stroke="#000000" stroke-width="3" rx="10" ry="10" />
  <rect x="175" y="90" width="50" height="30" fill="#ffffff" stroke="#000000" stroke-width="3" rx="5" ry="5" />
  
  <!-- Slot in ballot box -->
  <rect x="170" y="120" width="60" height="5" fill="#000000" />
  
  <!-- Ballot being inserted -->
  <rect x="180" y="70" width="40" height="55" fill="#ffffff" stroke="#000000" stroke-width="1" transform="rotate(-10,180,70)" />
  <line x1="190" y1="80" x2="220" y2="80" stroke="#000000" stroke-width="1" transform="rotate(-10,180,70)" />
  <line x1="190" y1="90" x2="215" y2="90" stroke="#000000" stroke-width="1" transform="rotate(-10,180,70)" />
  <line x1="190" y1="100" x2="210" y2="100" stroke="#000000" stroke-width="1" transform="rotate(-10,180,70)" />
  
  <!-- Check mark -->
  <path d="M195 170 L210 190 L230 150" stroke="#00cc00" stroke-width="5" fill="none" />
  
  <!-- People silhouettes -->
  <circle cx="100" cy="150" r="20" fill="#333333" />
  <rect x="90" y="170" width="20" height="40" fill="#333333" rx="5" ry="5" />
  
  <circle cx="300" cy="150" r="20" fill="#555555" />
  <rect x="290" y="170" width="20" height="40" fill="#555555" rx="5" ry="5" />
  
  <!-- Text -->
  <rect x="165" y="235" width="70" height="30" fill="#ffffff" rx="5" ry="5" opacity="0.8" />
  <text x="200" y="255" font-family="Arial" font-size="20" font-weight="bold" text-anchor="middle" fill="#000000" letter-spacing="3">VOTE</text>
</svg> 